<svg t="1635144978816" class="icon" viewBox="0 0 1024 1024" version="1.1" xmlns="http://www.w3.org/2000/svg" p-id="2755" xmlns:xlink="http://www.w3.org/1999/xlink" width="20" height="20"><defs><style type="text/css"></style></defs><path d="M877.714286 0a146.285714 146.285714 0 0 1 146.285714 146.285714v731.428572a146.285714 146.285714 0 0 1-146.285714 146.285714H146.285714a146.285714 146.285714 0 0 1-146.285714-146.285714V146.285714a146.285714 146.285714 0 0 1 146.285714-146.285714h731.428572z m0 73.142857H146.285714a73.142857 73.142857 0 0 0-72.630857 64.585143L73.142857 146.285714v731.428572a73.142857 73.142857 0 0 0 64.585143 72.630857L146.285714 950.857143h731.428572a73.142857 73.142857 0 0 0 72.630857-64.585143L950.857143 877.714286V146.285714a73.142857 73.142857 0 0 0-64.585143-72.630857L877.714286 73.142857z" fill="#000000" p-id="2756"></path></svg>