<svg t="1635144983715" class="icon" viewBox="0 0 1024 1024" version="1.1" xmlns="http://www.w3.org/2000/svg" p-id="2897" xmlns:xlink="http://www.w3.org/1999/xlink" width="20" height="20"><path d="M877.714286 0a146.285714 146.285714 0 0 1 146.285714 146.285714v731.428572a146.285714 146.285714 0 0 1-146.285714 146.285714H146.285714a146.285714 146.285714 0 0 1-146.285714-146.285714V146.285714a146.285714 146.285714 0 0 1 146.285714-146.285714h731.428572z m-34.377143 290.377143a54.857143 54.857143 0 0 0-71.387429-5.339429l-6.144 5.339429L438.857143 617.252571l-180.662857-180.662857-6.144-5.266285a54.857143 54.857143 0 0 0-76.726857 76.8l5.339428 6.070857 219.428572 219.428571 6.144 5.339429a54.857143 54.857143 0 0 0 64.512 0.512l6.875428-5.851429 365.714286-365.714286 5.339428-6.144a54.857143 54.857143 0 0 0-5.339428-71.387428z" p-id="2898"></path></svg>