<svg t="1693812473618" class="icon" viewBox="0 0 1024 1024" version="1.1" xmlns="http://www.w3.org/2000/svg" p-id="11685" width="20" height="20"><path d="M232.96 185.417143a24.137143 24.137143 0 0 0-31.963429 2.267428l-44.836571 46.08-1.828571 2.121143a24.137143 24.137143 0 0 0 0.365714 29.842286l1.901714 2.121143L401.408 506.148571l1.024 1.243429a8.045714 8.045714 0 0 1-0.877714 10.093714l-244.955429 238.592-1.901714 2.048a24.137143 24.137143 0 0 0-0.365714 29.915429l1.828571 2.121143 44.836571 46.006857 2.048 1.901714a24.137143 24.137143 0 0 0 32.036572-1.462857L527.140571 552.228571l2.633143-2.779428a56.246857 56.246857 0 0 0-1.974857-77.092572L235.081143 187.245714l-2.194286-1.828571z m330.532571 0a24.137143 24.137143 0 0 0-31.963428 2.267428l-44.836572 46.08-1.828571 2.121143a24.137143 24.137143 0 0 0 0.365714 29.842286l1.901715 2.121143 244.809142 238.372571 1.024 1.243429a8.045714 8.045714 0 0 1-0.877714 10.093714L487.131429 756.150857l-1.901715 2.048a24.137143 24.137143 0 0 0-0.365714 29.915429l1.828571 2.121143 44.836572 46.006857 2.048 1.901714a24.137143 24.137143 0 0 0 32.036571-1.462857l292.059429-284.452572 2.706286-2.779428a56.246857 56.246857 0 0 0-2.048-77.092572L565.613714 187.245714l-2.194285-1.828571z" p-id="11686"></path></svg>