<svg t="1635144966773" class="icon" viewBox="0 0 1024 1024" version="1.1" xmlns="http://www.w3.org/2000/svg" p-id="2471" xmlns:xlink="http://www.w3.org/1999/xlink" width="20" height="20"><path d="M514.38933333 17.40800001c-274.48661333 0-496.98133333 222.49472-496.98133332 496.98133332s222.49472 496.98133333 496.98133332 496.98133336 496.98133333-222.49472 496.98133336-496.98133336-222.49472-496.98133333-496.98133336-496.98133332z m0 917.504c-232.43434668 0-420.52266667-188.08832-420.52266665-420.52266668s188.08832-420.52266667 420.52266665-420.52266665 420.52266667 188.08832 420.52266668 420.52266665-188.08832 420.52266667-420.52266668 420.52266668z m0-611.66933332c-105.51296 0-191.14666668 85.63370666-191.14666664 191.14666664s85.63370666 191.14666668 191.14666664 191.14666668 191.14666668-85.63370666 191.14666668-191.14666668-85.63370666-191.14666668-191.14666668-191.14666664z" p-id="2472"></path></svg>